HIERARCHY
ROOT Hips
{
    OFFSET   0.000000   0.000000   0.000000
    CHANNELS 6 Xposition Yposition Zposition Zrotation Xrotation Yrotation
    JOINT Chest
    {
        OFFSET   0.000000   8.007230   0.000000
        CHANNELS 3 Zrotation Xrotation Yrotation
        JOINT Chest2
        {
            OFFSET   0.000000  22.077100   0.000000
            CHANNELS 3 Zrotation Xrotation Yrotation
            JOINT Neck
            {
                OFFSET   0.000000  23.254800  -0.000021
                CHANNELS 3 Zrotation Xrotation Yrotation
                JOINT Head
                {
                    OFFSET   0.000000  14.370000   1.956610
                    CHANNELS 3 Zrotation Xrotation Yrotation
                    End Site
                    {
                        OFFSET   0.000000  19.566000   0.000000
                    }
                }
            }
            JOINT LeftCollar
            {
                OFFSET   3.911900  19.017000  -0.467063
                CHANNELS 3 Zrotation Xrotation Yrotation
                JOINT LeftShoulder
                {
                    OFFSET  10.383700   0.000000   0.000000
                    CHANNELS 3 Zrotation Xrotation Yrotation
                    JOINT LeftElbow
                    {
                        OFFSET  26.662100   0.001529   0.000325
                        CHANNELS 3 Zrotation Xrotation Yrotation
                        JOINT LeftWrist
                        {
                            OFFSET  28.869000  -0.000011  -0.000096
                            CHANNELS 3 Zrotation Xrotation Yrotation
                            JOINT LeftFinger0
                            {
                                OFFSET   2.044650  -2.323460   3.252850
                                CHANNELS 3 Zrotation Xrotation Yrotation
                                JOINT LeftFinger01
                                {
                                    OFFSET   3.088130   0.000000   0.000000
                                    CHANNELS 3 Zrotation Xrotation Yrotation
                                    JOINT LeftFinger02
                                    {
                                        OFFSET   2.639460   0.000000   0.000000
                                        CHANNELS 3 Zrotation Xrotation Yrotation
                                        End Site
                                        {
                                            OFFSET   2.582190   0.000000   0.000000
                                        }
                                    }
                                }
                            }
                            JOINT LeftFinger1
                            {
                                OFFSET   8.364480   0.000000   3.252850
                                CHANNELS 3 Zrotation Xrotation Yrotation
                                JOINT LeftFinger11
                                {
                                    OFFSET   4.646930   0.000000   0.000000
                                    CHANNELS 3 Zrotation Xrotation Yrotation
                                    JOINT LeftFinger12
                                    {
                                        OFFSET   2.323460   0.000000   0.000000
                                        CHANNELS 3 Zrotation Xrotation Yrotation
                                        End Site
                                        {
                                            OFFSET   2.273050   0.000000   0.000000
                                        }
                                    }
                                }
                            }
                            JOINT LeftFinger2
                            {
                                OFFSET   8.364480   0.000016   1.078090
                                CHANNELS 3 Zrotation Xrotation Yrotation
                                JOINT LeftFinger21
                                {
                                    OFFSET   5.111620   0.000000   0.000000
                                    CHANNELS 3 Zrotation Xrotation Yrotation
                                    JOINT LeftFinger22
                                    {
                                        OFFSET   2.788160   0.000017   0.000000
                                        CHANNELS 3 Zrotation Xrotation Yrotation
                                        End Site
                                        {
                                            OFFSET   2.727660   0.000000   0.000000
                                        }
                                    }
                                }
                            }
                            JOINT LeftFinger3
                            {
                                OFFSET   7.899780   0.000015  -1.078090
                                CHANNELS 3 Zrotation Xrotation Yrotation
                                JOINT LeftFinger31
                                {
                                    OFFSET   4.646920   0.000000   0.000000
                                    CHANNELS 3 Zrotation Xrotation Yrotation
                                    JOINT LeftFinger32
                                    {
                                        OFFSET   2.323470   0.000000   0.000000
                                        CHANNELS 3 Zrotation Xrotation Yrotation
                                        End Site
                                        {
                                            OFFSET   2.273050   0.000000   0.000000
                                        }
                                    }
                                }
                            }
                            JOINT LeftFinger4
                            {
                                OFFSET   7.435090   0.000000  -3.252850
                                CHANNELS 3 Zrotation Xrotation Yrotation
                                JOINT LeftFinger41
                                {
                                    OFFSET   3.717550   0.000000   0.000000
                                    CHANNELS 3 Zrotation Xrotation Yrotation
                                    JOINT LeftFinger42
                                    {
                                        OFFSET   1.858760   0.000000   0.000000
                                        CHANNELS 3 Zrotation Xrotation Yrotation
                                        End Site
                                        {
                                            OFFSET   1.818440   0.000000   0.000000
                                        }
                                    }
                                }
                            }
                        }
                    }
                }
            }
            JOINT RightCollar
            {
                OFFSET  -3.911900  19.017000  -0.467062
                CHANNELS 3 Zrotation Xrotation Yrotation
                JOINT RightShoulder
                {
                    OFFSET -10.383700   0.000015   0.000000
                    CHANNELS 3 Zrotation Xrotation Yrotation
                    JOINT RightElbow
                    {
                        OFFSET -26.662100   0.001341   0.000385
                        CHANNELS 3 Zrotation Xrotation Yrotation
                        JOINT RightWrist
                        {
                            OFFSET -28.869000   0.000025  -0.000080
                            CHANNELS 3 Zrotation Xrotation Yrotation
                            JOINT RightFinger0
                            {
                                OFFSET  -2.044650  -2.323490   3.252850
                                CHANNELS 3 Zrotation Xrotation Yrotation
                                JOINT RightFinger01
                                {
                                    OFFSET  -3.088130   0.000000   0.000000
                                    CHANNELS 3 Zrotation Xrotation Yrotation
                                    JOINT RightFinger02
                                    {
                                        OFFSET  -2.639460   0.000000   0.000000
                                        CHANNELS 3 Zrotation Xrotation Yrotation
                                        End Site
                                        {
                                            OFFSET  -2.582190   0.000000   0.000000
                                        }
                                    }
                                }
                            }
                            JOINT RightFinger1
                            {
                                OFFSET  -8.364480   0.000000   3.252850
                                CHANNELS 3 Zrotation Xrotation Yrotation
                                JOINT RightFinger11
                                {
                                    OFFSET  -4.646930   0.000000   0.000000
                                    CHANNELS 3 Zrotation Xrotation Yrotation
                                    JOINT RightFinger12
                                    {
                                        OFFSET  -2.323470   0.000000   0.000000
                                        CHANNELS 3 Zrotation Xrotation Yrotation
                                        End Site
                                        {
                                            OFFSET  -2.273050   0.000000   0.000000
                                        }
                                    }
                                }
                            }
                            JOINT RightFinger2
                            {
                                OFFSET  -8.364480   0.000000   1.078090
                                CHANNELS 3 Zrotation Xrotation Yrotation
                                JOINT RightFinger21
                                {
                                    OFFSET  -5.111610   0.000000   0.000000
                                    CHANNELS 3 Zrotation Xrotation Yrotation
                                    JOINT RightFinger22
                                    {
                                        OFFSET  -2.788160   0.000000   0.000000
                                        CHANNELS 3 Zrotation Xrotation Yrotation
                                        End Site
                                        {
                                            OFFSET  -2.727660   0.000000   0.000000
                                        }
                                    }
                                }
                            }
                            JOINT RightFinger3
                            {
                                OFFSET  -7.899780   0.000000  -1.078090
                                CHANNELS 3 Zrotation Xrotation Yrotation
                                JOINT RightFinger31
                                {
                                    OFFSET  -4.646920   0.000000   0.000000
                                    CHANNELS 3 Zrotation Xrotation Yrotation
                                    JOINT RightFinger32
                                    {
                                        OFFSET  -2.323470   0.000000   0.000000
                                        CHANNELS 3 Zrotation Xrotation Yrotation
                                        End Site
                                        {
                                            OFFSET  -2.273050   0.000000   0.000000
                                        }
                                    }
                                }
                            }
                            JOINT RightFinger4
                            {
                                OFFSET  -7.435090   0.000000  -3.252850
                                CHANNELS 3 Zrotation Xrotation Yrotation
                                JOINT RightFinger41
                                {
                                    OFFSET  -3.717550   0.000000   0.000000
                                    CHANNELS 3 Zrotation Xrotation Yrotation
                                    JOINT RightFinger42
                                    {
                                        OFFSET  -1.858770   0.000000   0.000000
                                        CHANNELS 3 Zrotation Xrotation Yrotation
                                        End Site
                                        {
                                            OFFSET  -1.818440   0.000000   0.000000
                                        }
                                    }
                                }
                            }
                        }
                    }
                }
            }
        }
    }
    JOINT LeftHip
    {
        OFFSET   9.783010   0.000000   0.000000
        CHANNELS 3 Zrotation Xrotation Yrotation
        JOINT LeftKnee
        {
            OFFSET   0.000070 -41.789100   0.000028
            CHANNELS 3 Zrotation Xrotation Yrotation
            JOINT LeftAnkle
            {
                OFFSET   0.000087 -41.133200  -0.000100
                CHANNELS 3 Zrotation Xrotation Yrotation
                JOINT LeftToe
                {
                    OFFSET   0.000000  -6.358960  14.674500
                    CHANNELS 3 Zrotation Xrotation Yrotation
                    End Site
                    {
                        OFFSET   0.000000   0.000000   3.913200
                    }
                }
            }
        }
    }
    JOINT RightHip
    {
        OFFSET  -9.783020   0.000000   0.000000
        CHANNELS 3 Zrotation Xrotation Yrotation
        JOINT RightKnee
        {
            OFFSET   0.000044 -41.789100  -0.000870
            CHANNELS 3 Zrotation Xrotation Yrotation
            JOINT RightAnkle
            {
                OFFSET  -0.000090 -41.133200  -0.000245
                CHANNELS 3 Zrotation Xrotation Yrotation
                JOINT RightToe
                {
                    OFFSET   0.000000  -6.358960  14.674500
                    CHANNELS 3 Zrotation Xrotation Yrotation
                    End Site
                    {
                        OFFSET   0.000000   0.000000   3.913200
                    }
                }
            }
        }
    }
}
MOTION
Frames: 6
Frame Time:   0.016667
 -0.390417  90.087100  -0.590547  -0.767674   1.453280  -2.068490   0.104995  -0.824159   0.119889   0.211748  -1.648080   0.241326   1.333550   0.867225  -0.011649   2.182440   1.756630   0.732044  -1.137440  -1.507800   2.852460 -78.326900  13.113600   5.260990  -2.188480  -4.441640 -13.922600  14.538900   2.854750   9.335440  42.660100  33.238000 -69.946700 -23.920300  -0.003381   0.007594  -6.959580  -0.004367   0.003325 -30.974400   8.129350 -13.261600 -26.117600  -0.009989  -0.001602 -18.288200  -0.003426   0.003774 -28.567000   3.453590  -6.318300 -40.475000  -0.000479  -0.003341 -26.956400  -0.009736  -0.003736 -27.379200   3.317670  -6.388980 -29.481500  -0.008213  -0.007751 -19.634700  -0.001591  -0.007142 -28.902700   1.417910  -2.577030 -43.401600  -0.009804  -0.008250 -28.905500   0.005189  -0.005886   6.932390   2.235970   0.723100  74.502500   3.088600  -4.739080   1.599090  -3.681110  12.797500 -17.101600 -14.850100   4.384010 -38.081200  35.301200  71.821900  32.237300   0.004342  -0.007050  11.125000   0.013959  -0.006111  32.769300   1.689000   2.621720  26.842900  -0.004370   0.002035  18.790400  -0.004855   0.005154  28.102400  -1.438870  -2.666670  32.958200  -0.000835   0.002402  21.950100   0.001209   0.001658  28.533600  -2.034890  -3.716510  37.325800  -0.000458   0.001850  24.865500  -0.003443   0.001193  39.962700  -2.733340  -3.241670  60.060600   0.004875  -0.001529  40.000400  -0.000865  -0.000545   1.182350   0.253463   1.821790   0.928404   0.224535  14.197700  -6.311890  -3.339770   6.775100   0.000000   0.000000  -0.000000   1.138990   0.597099  -9.169310   0.084655   0.668887  -8.040700  -9.369710   1.034450   2.005090   0.000000   0.000000  -0.000000
 -0.393883  90.087000  -0.590425  -0.768226   1.437800  -2.068540   0.105088  -0.820386   0.127998   0.212119  -1.640540   0.257542   1.333810   0.874988  -0.011617   2.182890   1.772560   0.717927  -1.133600  -1.507880   2.832740 -78.324200  13.108000   5.250200  -2.192420  -4.428970 -13.954400  14.530000   2.855680   9.322860  42.668700  33.243700 -69.948300 -23.915200  -0.003362   0.007593  -6.959540  -0.004360   0.003321 -30.974600   8.129390 -13.260400 -26.117600  -0.009989  -0.001587 -18.288200  -0.003425   0.003781 -28.567300   3.453020  -6.315020 -40.492900  -0.000465  -0.003338 -26.968300  -0.009737  -0.003735 -27.379400   3.317700  -6.385620 -29.489400  -0.008202  -0.007740 -19.640000  -0.001591  -0.007132 -28.911700   1.417960  -2.573520 -43.415100  -0.009807  -0.008242 -28.914500   0.005186  -0.005880   6.933220   2.240120   0.700301  74.509100   3.102430  -4.739240   1.602830  -3.669930  12.808300 -17.095700 -14.835800   4.390320 -38.077400  35.290800  71.800700  32.237000   0.004334  -0.007021  11.124900   0.013984  -0.006102  32.765200   1.680980   2.609680  26.839300  -0.004347   0.002009  18.787700  -0.004848   0.005122  28.102100  -1.438860  -2.677370  32.956300  -0.000824   0.002380  21.948900   0.001206   0.001648  28.533400  -2.034850  -3.723260  37.325900  -0.000451   0.001835  24.864600  -0.003442   0.001182  39.971200  -2.733320  -3.247130  60.073300   0.004880  -0.001554  40.008800  -0.000884  -0.000556   1.182340   0.258958   1.820860   0.927541   0.250860  14.200100  -6.315590  -3.353900   6.774060  -0.000000   0.000000   0.000000   1.145530   0.631565  -9.168740   0.084198   0.626103  -8.046820  -9.373270   1.060520   2.017520  -0.000000   0.000000   0.000000
 -0.399468  90.087000  -0.590225  -0.769134   1.412280  -2.068570   0.105149  -0.813435   0.140456   0.212330  -1.626630   0.282452   1.334080   0.887705  -0.011585   2.183480   1.798660   0.695923  -1.128420  -1.508240   2.802800 -78.319900  13.102700   5.232360  -2.199160  -4.407110 -14.008500  14.517000   2.856640   9.305750  42.681600  33.252100 -69.947700 -23.909400  -0.003328   0.007586  -6.959460  -0.004344   0.003317 -30.975200   8.129540 -13.256000 -26.117600  -0.009988  -0.001554 -18.288200  -0.003421   0.003803 -28.568200   3.450120  -6.306750 -40.523100  -0.000429  -0.003330 -26.988400  -0.009741  -0.003732 -27.379900   3.317750  -6.377180 -29.503400  -0.008174  -0.007712 -19.649300  -0.001590  -0.007108 -28.926600   1.418030  -2.567710 -43.437500  -0.009815  -0.008219 -28.929400   0.005178  -0.005865   6.934480   2.246040   0.665306  74.519000   3.123550  -4.739520   1.611130  -3.658660  12.825600 -17.089200 -14.814400   4.399740 -38.073500  35.276000  71.770100  32.236800   0.004317  -0.006964  11.124800   0.014035  -0.006075  32.757600   1.669250   2.592230  26.832600  -0.004290   0.001941  18.782800  -0.004828   0.005044  28.101700  -1.438840  -2.691880  32.951100  -0.000794   0.002329  21.945400   0.001196   0.001615  28.533000  -2.034810  -3.732750  37.326100  -0.000433   0.001796  24.859200  -0.003438   0.001152  39.979600  -2.733300  -3.255030  60.085900   0.004896  -0.001617  40.017300  -0.000927  -0.000578   1.182110   0.271392   1.817680   0.926656   0.277180  14.206400  -6.319290  -3.368030   6.773020  -0.000000   0.000000   0.000000   1.153060   0.672168  -9.168180   0.083731   0.583320  -8.052950  -9.377850   1.086580   2.034820  -0.000000   0.000000  -0.000000
 -0.403710  90.087000  -0.590028  -0.769837   1.392400  -2.068420   0.104541  -0.806948   0.149729   0.211165  -1.613630   0.300994   1.332690   0.899139  -0.011590   2.182390   1.821300   0.678488  -1.126870  -1.510070   2.781640 -78.317000  13.105900   5.218540  -2.204900  -4.386490 -14.054300  14.511000   2.856450   9.300280  42.692000  33.256300 -69.939500 -23.908600  -0.003297   0.007570  -6.959370  -0.004322   0.003319 -30.977400   8.126290 -13.246800 -26.118800  -0.009980  -0.001510 -18.288100  -0.003409   0.003844 -28.569700   3.443550  -6.294150 -40.549300  -0.000376  -0.003318 -27.005800  -0.009751  -0.003729 -27.381100   3.312740  -6.364350 -29.516800  -0.008133  -0.007668 -19.658200  -0.001587  -0.007071 -28.938600   1.417900  -2.563050 -43.455500  -0.009826  -0.008182 -28.941400   0.005166  -0.005839   6.935400   2.248960   0.639318  74.525300   3.135620  -4.739790   1.623010  -3.665890  12.837500 -17.088200 -14.802500   4.405930 -38.075700  35.271500  71.752200  32.236800   0.004295  -0.006904  11.124600   0.014095  -0.006021  32.747600   1.663390   2.584000  26.824200  -0.004200   0.001831  18.776900  -0.004796   0.004925  28.101600  -1.438360  -2.696360  32.941600  -0.000745   0.002260  21.939100   0.001174   0.001552  28.532900  -2.034850  -3.736150  37.307700  -0.000403   0.001733  24.844700  -0.003428   0.001106  39.967600  -2.733420  -3.258550  60.068100   0.004922  -0.001715  40.005400  -0.000984  -0.000607   1.181400   0.288128   1.809970   0.925029   0.275578  14.217600  -6.317680  -3.363960   6.774560  -0.000000   0.000000   0.000000   1.152970   0.677366  -9.171520   0.081457   0.617408  -8.052850  -9.377930   1.067420   2.040660  -0.000000   0.000000   0.000000
 -0.407366  90.087000  -0.589910  -0.770522   1.372900  -2.068160   0.103647  -0.798743   0.154691   0.209479  -1.597200   0.310881   1.329280   0.906856  -0.011600   2.178980   1.837950   0.668943  -1.126630  -1.512540   2.770710 -78.314600  13.120400   5.204710  -2.211010  -4.368110 -14.100900  14.505700   2.854770   9.299210  42.696900  33.260800 -69.931000 -23.908500  -0.003260   0.007552  -6.959290  -0.004293   0.003324 -30.980600   8.120240 -13.235200 -26.120800  -0.009967  -0.001454 -18.288000  -0.003394   0.003897 -28.571600   3.434920  -6.278370 -40.573300  -0.000310  -0.003302 -27.021800  -0.009763  -0.003724 -27.383100   3.303550  -6.348280 -29.529900  -0.008079  -0.007614 -19.666900  -0.001582  -0.007023 -28.949800   1.417660  -2.558690 -43.472300  -0.009841  -0.008134 -28.952500   0.005149  -0.005806   6.935880   2.250110   0.625527  74.528900   3.146890  -4.739980   1.634810  -3.676900  12.849700 -17.088000 -14.794100   4.408940 -38.076900  35.274400  71.741500  32.237300   0.004270  -0.006828  11.124600   0.014171  -0.005954  32.741300   1.659350   2.578500  26.818900  -0.004091   0.001693  18.773200  -0.004754   0.004782  28.101600  -1.437530  -2.697040  32.930900  -0.000684   0.002175  21.932000   0.001147   0.001474  28.532800  -2.035190  -3.738350  37.282100  -0.000365   0.001655  24.829800  -0.003417   0.001049  39.951200  -2.734340  -3.261160  60.043500   0.004956  -0.001835  39.989000  -0.001053  -0.000643   1.180560   0.308973   1.803700   0.924175   0.270935  14.228600  -6.314980  -3.358220   6.776960   0.000000   0.000000  -0.000000   1.152560   0.680330  -9.178250   0.075799   0.651498  -8.051830  -9.378160   1.048270   2.044130   0.000000   0.000000   0.000000
 -0.409879  90.087000  -0.589963  -0.771188   1.353850  -2.067870   0.103172  -0.787058   0.154717   0.208487  -1.573840   0.310904   1.324460   0.908207  -0.011606   2.174390   1.842820   0.669041  -1.130710  -1.514580   2.772580 -78.307400  13.155400   5.190520  -2.217310  -4.358440 -14.147100  14.499500   2.835720   9.298910  42.703300  33.270300 -69.932200 -23.912100  -0.003213   0.007541  -6.959260  -0.004258   0.003333 -30.983900   8.114350 -13.223100 -26.121800  -0.009951  -0.001383 -18.288000  -0.003378   0.003955 -28.573400   3.425110  -6.260170 -40.591300  -0.000236  -0.003284 -27.033800  -0.009775  -0.003713 -27.385100   3.294300  -6.329790 -29.541700  -0.008012  -0.007555 -19.674900  -0.001579  -0.006962 -28.959200   1.417380  -2.554830 -43.486300  -0.009862  -0.008080 -28.961900   0.005129  -0.005768   6.935770   2.245230   0.629954  74.527400   3.160810  -4.739960   1.642310  -3.684380  12.865800 -17.097900 -14.789500   4.405440 -38.081800  35.290800  71.750700  32.242400   0.004245  -0.006723  11.124600   0.014267  -0.005883  32.742300   1.656840   2.574900  26.819700  -0.003973   0.001541  18.773300  -0.004708   0.004630  28.101700  -1.436760  -2.695010  32.920500  -0.000617   0.002073  21.925000   0.001119   0.001395  28.532500  -2.037900  -3.741080  37.271500  -0.000324   0.001567  24.822800  -0.003408   0.000982  39.945000  -2.736460  -3.263880  60.034400   0.004995  -0.001967  39.982900  -0.001133  -0.000684   1.180110   0.332045   1.802720   0.925462   0.266737  14.233400  -6.313560  -3.356950   6.778340   0.000000   0.000000   0.000000   1.155510   0.688259  -9.188530   0.069329   0.651370  -8.047160  -9.381700   1.051230   2.049950   0.000000   0.000000   0.000000
